<svg xmlns="http://www.w3.org/2000/svg" viewBox="0 0 64 64">
  <defs>
    <linearGradient id="navy" x1="0" y1="0" x2="1" y2="1">
      <stop offset="0" stop-color="#14395f"/>
      <stop offset="1" stop-color="#0D2A4E"/>
    </linearGradient>
  </defs>
  <circle cx="32" cy="32" r="30" fill="url(#navy)"/>
  <circle cx="32" cy="32" r="29" fill="none" stroke="#F2A93B" stroke-width="2"/>
  <g>
    <path d="M32 16.6l-10.6 5.4L32 27.4l10.6-5.4L32 16.6z" fill="#7FC4E8"/>
    <path d="M21.4 24.2v8.6c0 2 4.7 3.7 10.6 3.7s10.6-1.7 10.6-3.7v-8.6L32 29.7l-10.6-5.5z" fill="#EAF6FD"/>
    <path d="M32 27.4v17.1" stroke="#7FC4E8" stroke-width="2.2" stroke-linecap="round"/>
  </g>
  <path d="M21 26.8c0 1.5-.4 11.4 11.5 11.4" fill="none" stroke="#F2A93B" stroke-width="2.6" stroke-linecap="round"/>
  <path d="M49.5 19.5l.8 1.9 1.9.8-1.9.9-.8 1.9-.9-1.9-1.9-.9 1.9-.8z" fill="#F2A93B"/>
</svg>